<svg preserveAspectRatio="none" width="100%" height="100%" overflow="visible" style="display: block;" viewBox="0 0 143 54" fill="none" xmlns="http://www.w3.org/2000/svg">
<g id="Levels">
<g id="Battery">
<g id="Border" opacity="0.35">
<rect x="83" y="23" width="25" height="13" rx="4.3" fill="var(--fill-0, black)" fill-opacity="0.9"/>
<rect x="83.5" y="23.5" width="24" height="12" rx="3.8" stroke="var(--stroke-0, black)" stroke-opacity="0.9"/>
</g>
<path id="Cap" opacity="0.4" d="M109 27.7811V31.8566C109.805 31.5114 110.328 30.7085 110.328 29.8189C110.328 28.9293 109.805 28.1263 109 27.7811" fill="var(--fill-0, black)" fill-opacity="0.9"/>
<rect id="Capacity" x="85" y="25" width="21" height="9" rx="2.5" fill="var(--fill-0, black)" fill-opacity="0.9"/>
</g>
<path id="Wifi" fill-rule="evenodd" clip-rule="evenodd" d="M67.2705 26.104C69.7576 26.1041 72.1496 27.0262 73.9522 28.6797C74.0879 28.8074 74.3048 28.8058 74.4385 28.6761L75.736 27.4126C75.8037 27.3469 75.8414 27.2578 75.8409 27.1651C75.8403 27.0724 75.8015 26.9838 75.733 26.9188C71.002 22.5441 63.5383 22.5441 58.8073 26.9188C58.7388 26.9837 58.6999 27.0724 58.6992 27.165C58.6986 27.2577 58.7363 27.3468 58.8039 27.4126L60.1018 28.6761C60.2354 28.8059 60.4525 28.8076 60.5882 28.6797C62.3909 27.0261 64.7832 26.104 67.2705 26.104ZM67.2672 30.3243C68.6245 30.3242 69.9334 30.836 70.9395 31.7601C71.0756 31.8913 71.2899 31.8884 71.4226 31.7537L72.7099 30.4344C72.7777 30.3652 72.8153 30.2713 72.8143 30.1738C72.8133 30.0762 72.7738 29.9831 72.7047 29.9153C69.6408 27.0245 64.8961 27.0245 61.8323 29.9153C61.7631 29.9831 61.7236 30.0762 61.7227 30.1738C61.7218 30.2714 61.7595 30.3653 61.8274 30.4344L63.1144 31.7537C63.247 31.8884 63.4614 31.8913 63.5975 31.7601C64.6029 30.8366 65.9108 30.3249 67.2672 30.3243ZM69.7916 33.1179C69.7935 33.2232 69.7565 33.3248 69.6892 33.3986L67.5125 35.8533C67.4487 35.9255 67.3617 35.9661 67.2709 35.9661C67.1802 35.9661 67.0932 35.9255 67.0294 35.8533L64.8523 33.3986C64.7851 33.3247 64.7481 33.2231 64.7501 33.1178C64.7521 33.0124 64.7929 32.9127 64.8629 32.842C66.253 31.5282 68.2889 31.5282 69.679 32.842C69.7489 32.9127 69.7897 33.0125 69.7916 33.1179Z" fill="var(--fill-0, black)" fill-opacity="0.9"/>
<path id="Cellular Connection" fill-rule="evenodd" clip-rule="evenodd" d="M51.2 24.6821C51.2 24.049 50.7224 23.5358 50.1333 23.5358H49.0667C48.4776 23.5358 48 24.049 48 24.6821V34.616C48 35.2491 48.4776 35.7622 49.0667 35.7622H50.1333C50.7224 35.7622 51.2 35.2491 51.2 34.616V24.6821ZM43.7659 25.9811H44.8326C45.4217 25.9811 45.8992 26.5066 45.8992 27.1548V34.5885C45.8992 35.2367 45.4217 35.7622 44.8326 35.7622H43.7659C43.1768 35.7622 42.6992 35.2367 42.6992 34.5885V27.1548C42.6992 26.5066 43.1768 25.9811 43.7659 25.9811ZM39.4341 28.6302H38.3674C37.7783 28.6302 37.3008 29.1623 37.3008 29.8188V34.5735C37.3008 35.23 37.7783 35.7622 38.3674 35.7622H39.4341C40.0232 35.7622 40.5008 35.23 40.5008 34.5735V29.8188C40.5008 29.1623 40.0232 28.6302 39.4341 28.6302ZM34.1333 31.0754H33.0667C32.4776 31.0754 32 31.6 32 32.2471V34.5905C32 35.2377 32.4776 35.7622 33.0667 35.7622H34.1333C34.7224 35.7622 35.2 35.2377 35.2 34.5905V32.2471C35.2 31.6 34.7224 31.0754 34.1333 31.0754Z" fill="var(--fill-0, black)" fill-opacity="0.9"/>
</g>
</svg>
